<svg xmlns="http://www.w3.org/2000/svg" viewBox="0 0 512 512">
  <defs>
    <linearGradient id="goldGradient" x1="0%" y1="0%" x2="100%" y2="100%">
      <stop offset="0%" style="stop-color:#FFD700;stop-opacity:1" />
      <stop offset="100%" style="stop-color:#FFA500;stop-opacity:1" />
    </linearGradient>
  </defs>
  
  <!-- Background -->
  <rect width="512" height="512" fill="#0a0a0a"/>
  
  <!-- Outer glow circle -->
  <circle cx="256" cy="256" r="220" fill="none" stroke="url(#goldGradient)" stroke-width="3" opacity="0.3"/>
  
  <!-- Main circle background -->
  <circle cx="256" cy="256" r="200" fill="url(#goldGradient)"/>
  
  <!-- Inner dark circle -->
  <circle cx="256" cy="256" r="180" fill="#0a0a0a"/>
  
  <!-- G letter -->
  <path d="M 200 180 Q 160 180 160 220 L 160 292 Q 160 332 200 332 L 280 332 L 280 290 L 220 290 L 220 256 L 280 256 L 280 220 Q 280 180 240 180 L 200 180 Z" 
        fill="url(#goldGradient)" 
        stroke="url(#goldGradient)" 
        stroke-width="2"/>
  
  <!-- Stylized lines representing logistics/movement -->
  <line x1="300" y1="200" x2="360" y2="200" stroke="url(#goldGradient)" stroke-width="8" stroke-linecap="round" opacity="0.8"/>
  <line x1="300" y1="240" x2="340" y2="240" stroke="url(#goldGradient)" stroke-width="8" stroke-linecap="round" opacity="0.6"/>
  <line x1="300" y1="280" x2="360" y2="280" stroke="url(#goldGradient)" stroke-width="8" stroke-linecap="round" opacity="0.8"/>
  <line x1="300" y1="320" x2="340" y2="320" stroke="url(#goldGradient)" stroke-width="8" stroke-linecap="round" opacity="0.6"/>
  
  <!-- Small accent dots -->
  <circle cx="370" cy="200" r="6" fill="#FFD700"/>
  <circle cx="370" cy="280" r="6" fill="#FFD700"/>
</svg>
